<svg width="1200" height="630" viewBox="0 0 1200 630" fill="none" xmlns="http://www.w3.org/2000/svg">
  <rect width="1200" height="630" fill="#07101B"/>
  <rect width="1200" height="630" fill="url(#bgGlow)"/>
  <g opacity="0.18">
    <path d="M0 90H1200" stroke="#D9F7F4" stroke-width="1"/>
    <path d="M0 210H1200" stroke="#D9F7F4" stroke-width="1"/>
    <path d="M0 330H1200" stroke="#D9F7F4" stroke-width="1"/>
    <path d="M0 450H1200" stroke="#D9F7F4" stroke-width="1"/>
    <path d="M0 570H1200" stroke="#D9F7F4" stroke-width="1"/>
    <path d="M120 0V630" stroke="#D9F7F4" stroke-width="1"/>
    <path d="M360 0V630" stroke="#D9F7F4" stroke-width="1"/>
    <path d="M600 0V630" stroke="#D9F7F4" stroke-width="1"/>
    <path d="M840 0V630" stroke="#D9F7F4" stroke-width="1"/>
    <path d="M1080 0V630" stroke="#D9F7F4" stroke-width="1"/>
  </g>
  <rect x="72" y="72" width="1056" height="486" rx="32" fill="url(#panel)" stroke="rgba(255,255,255,0.12)"/>
  <rect x="108" y="112" width="140" height="40" rx="20" fill="rgba(255,255,255,0.06)" stroke="rgba(255,255,255,0.1)"/>
  <circle cx="136" cy="132" r="7" fill="#14C9C3"/>
  <text x="158" y="139" fill="#E8FBF8" font-size="16" font-family="Arial, sans-serif" font-weight="700" letter-spacing="1.6">MGtechAD</text>
  <text x="108" y="230" fill="#F7FAFC" font-size="70" font-family="Arial, sans-serif" font-weight="700">Webs y sistemas</text>
  <text x="108" y="312" fill="#14C9C3" font-size="70" font-family="Arial, sans-serif" font-weight="700">para captar más</text>
  <text x="108" y="394" fill="#F7FAFC" font-size="70" font-family="Arial, sans-serif" font-weight="700">y operar mejor.</text>
  <text x="108" y="455" fill="#A7B4C8" font-size="26" font-family="Arial, sans-serif">
    Diseño y desarrollo con enfoque comercial para negocios de servicios.
  </text>
  <rect x="108" y="488" width="264" height="56" rx="18" fill="url(#cta)"/>
  <text x="144" y="524" fill="#03111D" font-size="24" font-family="Arial, sans-serif" font-weight="700">Solicitar propuesta</text>
  <rect x="730" y="154" width="326" height="250" rx="28" fill="rgba(255,255,255,0.04)" stroke="rgba(255,255,255,0.1)"/>
  <text x="764" y="203" fill="#88E9E3" font-size="16" font-family="Arial, sans-serif" font-weight="700" letter-spacing="2.8">DESDE</text>
  <text x="764" y="256" fill="#FFFFFF" font-size="54" font-family="Arial, sans-serif" font-weight="700">RD$38,000</text>
  <text x="764" y="302" fill="#A7B4C8" font-size="22" font-family="Arial, sans-serif">Landing de conversión</text>
  <rect x="764" y="336" width="258" height="18" rx="9" fill="rgba(255,255,255,0.08)"/>
  <rect x="764" y="372" width="220" height="18" rx="9" fill="rgba(255,255,255,0.06)"/>
  <rect x="764" y="446" width="236" height="48" rx="16" fill="rgba(20,201,195,0.12)" stroke="rgba(20,201,195,0.2)"/>
  <text x="792" y="477" fill="#C5FBF8" font-size="22" font-family="Arial, sans-serif" font-weight="700">Respuesta en 24 horas</text>
  <defs>
    <radialGradient id="bgGlow" cx="0" cy="0" r="1" gradientUnits="userSpaceOnUse" gradientTransform="translate(170 220) rotate(18) scale(460 320)">
      <stop stop-color="#14C9C3" stop-opacity="0.18"/>
      <stop offset="1" stop-color="#14C9C3" stop-opacity="0"/>
    </radialGradient>
    <linearGradient id="panel" x1="72" y1="72" x2="1128" y2="558" gradientUnits="userSpaceOnUse">
      <stop stop-color="#0C1526"/>
      <stop offset="1" stop-color="#13243F"/>
    </linearGradient>
    <linearGradient id="cta" x1="108" y1="488" x2="372" y2="544" gradientUnits="userSpaceOnUse">
      <stop stop-color="#14C9C3"/>
      <stop offset="1" stop-color="#2F8BFF"/>
    </linearGradient>
  </defs>
</svg>
